<svg xmlns="http://www.w3.org/2000/svg" x="0px" y="0px" viewBox="5.673999881744384 5.673999881744384 36.65199737548828 36.65199737548828" enable-background="new 0 0 48 48">
<g>
	
		<path fill="#FFFFFF" stroke="#000000" stroke-width="2.3" stroke-linecap="round" stroke-linejoin="round" stroke-miterlimit="10" d="   M21.735,18h4.53C28.328,18,30,19.672,30,21.735v4.53C30,28.328,28.328,30,26.265,30h-4.53C19.672,30,18,28.328,18,26.265v-4.53   C18,19.672,19.672,18,21.735,18z"/>
</g>
<g>
	
		<circle fill="none" stroke="#536DFE" stroke-width="2.3" stroke-linecap="round" stroke-linejoin="round" stroke-miterlimit="10" cx="24" cy="24" r="2.21"/>
</g>
<g>
	<g>
		<path fill="none" stroke="#536DFE" stroke-width="2.3" stroke-linecap="round" stroke-linejoin="round" stroke-miterlimit="10" d="    M22.177,15.32c0.464-0.464,1.109-0.757,1.823-0.757s1.359,0.292,1.823,0.757"/>
		<path fill="none" stroke="#536DFE" stroke-width="2.3" stroke-linecap="round" stroke-linejoin="round" stroke-miterlimit="10" d="    M19.443,12.586c1.161-1.169,2.777-1.892,4.557-1.892s3.396,0.722,4.557,1.892"/>
		<path fill="none" stroke="#536DFE" stroke-width="2.3" stroke-linecap="round" stroke-linejoin="round" stroke-miterlimit="10" d="    M31.3,9.851c-1.875-1.866-4.454-3.027-7.3-3.027s-5.417,1.161-7.292,3.027H16.7"/>
	</g>
	<g>
		<path fill="none" stroke="#536DFE" stroke-width="2.3" stroke-linecap="round" stroke-linejoin="round" stroke-miterlimit="10" d="    M22.177,32.68c0.464,0.464,1.109,0.757,1.823,0.757s1.359-0.292,1.823-0.757"/>
		<path fill="none" stroke="#536DFE" stroke-width="2.3" stroke-linecap="round" stroke-linejoin="round" stroke-miterlimit="10" d="    M19.443,35.414c1.161,1.169,2.777,1.892,4.557,1.892s3.396-0.722,4.557-1.892"/>
		<path fill="none" stroke="#536DFE" stroke-width="2.3" stroke-linecap="round" stroke-linejoin="round" stroke-miterlimit="10" d="    M31.3,38.149c-1.875,1.866-4.454,3.027-7.3,3.027s-5.417-1.161-7.292-3.027H16.7"/>
	</g>
	<g>
		<path fill="none" stroke="#536DFE" stroke-width="2.3" stroke-linecap="round" stroke-linejoin="round" stroke-miterlimit="10" d="    M15.32,25.823c-0.464-0.464-0.757-1.109-0.757-1.823s0.292-1.359,0.757-1.823"/>
		<path fill="none" stroke="#536DFE" stroke-width="2.3" stroke-linecap="round" stroke-linejoin="round" stroke-miterlimit="10" d="    M12.586,28.557c-1.169-1.161-1.892-2.777-1.892-4.557s0.722-3.396,1.892-4.557"/>
		<path fill="none" stroke="#536DFE" stroke-width="2.3" stroke-linecap="round" stroke-linejoin="round" stroke-miterlimit="10" d="    M9.851,16.7c-1.866,1.875-3.027,4.454-3.027,7.3s1.161,5.417,3.027,7.292V31.3"/>
	</g>
	<g>
		<path fill="none" stroke="#536DFE" stroke-width="2.3" stroke-linecap="round" stroke-linejoin="round" stroke-miterlimit="10" d="    M32.68,25.823c0.464-0.464,0.757-1.109,0.757-1.823s-0.292-1.359-0.757-1.823"/>
		<path fill="none" stroke="#536DFE" stroke-width="2.3" stroke-linecap="round" stroke-linejoin="round" stroke-miterlimit="10" d="    M35.414,28.557c1.169-1.161,1.892-2.777,1.892-4.557s-0.722-3.396-1.892-4.557"/>
		<path fill="none" stroke="#536DFE" stroke-width="2.3" stroke-linecap="round" stroke-linejoin="round" stroke-miterlimit="10" d="    M38.149,16.7c1.866,1.875,3.027,4.454,3.027,7.3s-1.161,5.417-3.027,7.292V31.3"/>
	</g>
</g>
</svg>